<?xml version="1.0" encoding="utf-8"?>
<!-- Generator: Adobe Illustrator 27.4.1, SVG Export Plug-In . SVG Version: 6.00 Build 0)  -->
<svg version="1.1" id="Layer_1" xmlns="http://www.w3.org/2000/svg" xmlns:xlink="http://www.w3.org/1999/xlink" x="0px" y="0px"
	 viewBox="0 0 144 132" style="enable-background:new 0 0 144 132;" xml:space="preserve">
<style type="text/css">
	.st0{fill:#BBEDF7;}
	.st1{fill:#99D9E3;}
	.st2{fill:#39A900;}
	.st3{font-family:'Montserrat-Bold';}
	.st4{font-size:20px;}
	.st5{fill:none;}
	.st6{fill:#FFFFFF;}
	.st7{fill:#00314D;}
	.st8{fill:#00314D;stroke:#00314D;}
</style>
<g>
	<path id="blob_4_" class="st0" d="M143,42.5c5.6,20.5-12,45-36.4,63.4S51.1,136.9,29,123.8C6.7,110.7-6.6,72.3,3.4,45.7
		C13.4,19,46.8,4.3,77.8,5C108.9,5.8,137.5,22.2,143,42.5z"/>
	<circle id="Elipse_6" class="st1" cx="91" cy="112" r="10"/>
	<circle id="Elipse_7" class="st1" cx="28" cy="46" r="10"/>
	<circle id="Elipse_11" class="st1" cx="15" cy="123" r="7"/>
	<circle id="Elipse_12" class="st1" cx="135" cy="7" r="7"/>
	<circle id="Elipse_8" class="st1" cx="94" cy="17" r="10"/>
	<g>
		<text transform="matrix(-1 0 0 -1 76.9902 44.9992)" class="st2 st3 st4">+</text>
		<text transform="matrix(-1 0 0 -1 136.9902 28.9992)" class="st2 st3 st4">+</text>
		<text transform="matrix(-1 0 0 -1 56.9902 112.9992)" class="st2 st3 st4">+</text>
		<circle id="Elipse_1" class="st2" cx="137" cy="106" r="4"/>
		<circle id="Elipse_2" class="st2" cx="110" cy="13" r="4"/>
		<circle id="Elipse_5" class="st2" cx="34" cy="17" r="4"/>
		<g id="Elipse_3" transform="translate(121.665 89.676)">
			<circle class="st2" cx="-83.7" cy="-33.7" r="4"/>
			<path class="st2" d="M-83.7-29.7c-2.2,0-4-1.8-4-4s1.8-4,4-4s4,1.8,4,4S-81.5-29.7-83.7-29.7z M-83.7-35.7c-1.1,0-2,0.9-2,2
				s0.9,2,2,2s2-0.9,2-2S-82.6-35.7-83.7-35.7z"/>
		</g>
		<g id="Elipse_4" transform="translate(28.665 69.676)">
			<circle class="st5" cx="102.3" cy="6.3" r="2"/>
			<path class="st2" d="M102.3,5.3c-2.2,0-4,1.8-4,4s1.8,4,4,4s4-1.8,4-4S104.5,5.3,102.3,5.3z M102.3,11.3c-1.1,0-2-0.9-2-2
				s0.9-2,2-2s2,0.9,2,2S103.4,11.3,102.3,11.3z"/>
		</g>
	</g>
	<circle id="Elipse_13" class="st6" cx="44" cy="32" r="13"/>
	<g>
		<path class="st7" d="M55.8,29.1c-0.8,0-1.5,0.7-1.5,1.5v1.1c0,5.8-4.7,10.5-10.5,10.5c0,0,0,0,0,0c-5.8,0-10.5-4.7-10.5-10.5
			c0-5.8,4.7-10.5,10.5-10.5c0,0,0,0,0,0c1.5,0,2.9,0.3,4.3,0.9c0.8,0.3,1.6,0,2-0.8c0.3-0.8,0-1.6-0.8-2c-1.7-0.8-3.6-1.2-5.5-1.2
			c0,0,0,0,0,0c-7.4,0-13.5,6-13.5,13.5c0,7.4,6,13.5,13.5,13.5c0,0,0,0,0,0c7.4,0,13.5-6,13.5-13.5v-1.1
			C57.3,29.8,56.6,29.1,55.8,29.1z"/>
		<path class="st7" d="M39.2,36.3c0.3,0.3,0.7,0.4,1.1,0.4c0.4,0,0.8-0.1,1.1-0.4l2.5-2.5l2.5,2.5c0.3,0.3,0.7,0.4,1.1,0.4
			c0.4,0,0.8-0.1,1.1-0.4c0.6-0.6,0.6-1.5,0-2.1L46,31.7l2.5-2.5c0.6-0.6,0.6-1.5,0-2.1c-0.6-0.6-1.5-0.6-2.1,0l-2.5,2.5L41.3,27
			c-0.6-0.6-1.5-0.6-2.1,0c-0.6,0.6-0.6,1.5,0,2.1l2.5,2.5l-2.5,2.5C38.6,34.8,38.6,35.7,39.2,36.3z"/>
	</g>
	<circle id="Elipse_13-2" class="st6" cx="44" cy="100" r="13"/>
	<g>
		<path class="st7" d="M55.8,97.4c-0.8,0-1.5,0.7-1.5,1.5v1.1c0,5.8-4.7,10.5-10.5,10.5c0,0,0,0,0,0c-5.8,0-10.5-4.7-10.5-10.5
			s4.7-10.5,10.5-10.5c0,0,0,0,0,0c1.5,0,2.9,0.3,4.3,0.9c0.8,0.3,1.6,0,2-0.8c0.3-0.8,0-1.6-0.8-2c-1.7-0.8-3.6-1.2-5.5-1.2
			c0,0,0,0,0,0c-7.4,0-13.5,6-13.5,13.5c0,7.4,6,13.5,13.5,13.5c0,0,0,0,0,0c7.4,0,13.5-6,13.5-13.5v-1.1
			C57.3,98.1,56.6,97.4,55.8,97.4z"/>
		<path class="st7" d="M39.2,104.7c0.3,0.3,0.7,0.4,1.1,0.4c0.4,0,0.8-0.1,1.1-0.4l2.5-2.5l2.5,2.5c0.3,0.3,0.7,0.4,1.1,0.4
			c0.4,0,0.8-0.1,1.1-0.4c0.6-0.6,0.6-1.5,0-2.1L46,100l2.5-2.5c0.6-0.6,0.6-1.5,0-2.1c-0.6-0.6-1.5-0.6-2.1,0l-2.5,2.5l-2.5-2.5
			c-0.6-0.6-1.5-0.6-2.1,0c-0.6,0.6-0.6,1.5,0,2.1l2.5,2.5l-2.5,2.5C38.6,103.1,38.6,104.1,39.2,104.7z"/>
	</g>
	<circle id="Elipse_13-3" class="st6" cx="44" cy="66" r="13"/>
	<g id="Icon_feather-check-circle-3" transform="translate(1.102 1.102)">
		<path class="st7" d="M42.7,78.2C42.7,78.2,42.7,78.2,42.7,78.2c-7.4,0-13.5-6-13.5-13.5c0-7.4,6-13.5,13.5-13.5c0,0,0,0,0,0
			c1.9,0,3.7,0.4,5.5,1.2c0.8,0.3,1.1,1.2,0.8,2c-0.3,0.8-1.2,1.1-2,0.8c-1.3-0.6-2.8-0.9-4.3-0.9c0,0,0,0,0,0
			c-2.8,0-5.4,1.1-7.4,3.1c-2,2-3.1,4.6-3.1,7.4c0,5.8,4.7,10.5,10.5,10.5c0,0,0,0,0,0c5.8,0,10.5-4.7,10.5-10.5v-1.1
			c0-0.8,0.7-1.5,1.5-1.5s1.5,0.7,1.5,1.5v1.1C56.2,72.2,50.2,78.2,42.7,78.2z"/>
		<path class="st7" d="M42.7,68.7c-0.4,0-0.8-0.2-1.1-0.4l-3.6-3.6c-0.6-0.6-0.6-1.5,0-2.1c0.6-0.6,1.5-0.6,2.1,0l2.5,2.5l10.9-10.9
			c0.6-0.6,1.5-0.6,2.1,0c0.6,0.6,0.6,1.5,0,2.1l-12,12C43.5,68.5,43.1,68.7,42.7,68.7L42.7,68.7z"/>
	</g>
	<path id="Trazado_40" class="st6" d="M63.7,95L67.4,83c0,0,42-44.1,43.3-44.3c1.5-0.1,2.9-0.1,4.4,0l4.7,4.7v4.7L75.6,91.4L63.7,95
		z"/>
	<path class="st8" d="M119.1,43l-3.9-3.9c-1.6-1.6-4.2-1.6-5.8,0l-2.4,2.4c-0.4-0.3-1.1-0.3-1.5,0.1l-3.4,3.4
		c-0.4,0.4-0.4,1-0.1,1.5L66.2,82.3c0,0,0,0,0,0c-0.1,0.1-0.1,0.2-0.2,0.3c0,0,0,0.1-0.1,0.1c0,0,0,0,0,0.1l-3.8,12
		c0,0.1-0.1,0.2-0.1,0.3c0,0.6,0.5,1.1,1.1,1.1l0,0c0.1,0,0.2,0,0.3-0.1l12-3.8c0,0,0,0,0.1,0c0,0,0,0,0.1,0
		c0.1-0.1,0.2-0.1,0.3-0.2c0,0,0,0,0,0l35.8-35.8c0.2,0.2,0.4,0.3,0.7,0.3l0,0c0.3,0,0.6-0.1,0.8-0.3l3.4-3.4c0,0,0,0,0,0
		c0.4-0.4,0.4-1,0-1.5l2.4-2.4C120.7,47.2,120.7,44.6,119.1,43z M68.5,83l35-35l2.5,2.5l-35,35L68.5,83z M64.8,93.3l2.6-8.2l2.8,2.8
		c0,0,0,0,0.1,0.1l2.8,2.8L64.8,93.3z M75.1,89.6l-2.5-2.5l35-35l2.5,2.5L75.1,89.6z M112.4,53.8l-0.2-0.2l-7.8-7.8l1.9-1.9l8,8
		L112.4,53.8z M117.6,47.2l-2.4,2.4l-6.6-6.6l2.4-2.4c0.7-0.7,1.9-0.7,2.7,0l3.9,3.9c0,0,0,0,0,0C118.3,45.3,118.3,46.5,117.6,47.2z
		"/>
</g>
</svg>
